<svg width="1280" height="178" viewBox="0 0 1280 178" fill="none" xmlns="http://www.w3.org/2000/svg">
<path d="M-78.9401 215.901C-21.4316 215.802 39.7816 217.837 96.5911 212.796C181.631 205.243 262.516 187.481 346.936 178.452C379.081 175.019 409.547 173.033 441.033 179.056C466.686 183.965 489.254 192.583 511.024 201.294C549.968 216.867 591.08 236.839 641.598 238.402C703.71 240.328 766.282 213.411 819.946 199.198C848.086 191.743 880.47 183.109 912.544 184.936C941.633 186.582 968.405 195.836 991.582 204.974C1037.3 222.988 1085.93 251.501 1147.15 248.742C1221.36 245.391 1284.15 218.611 1359.02 215.874" stroke="url(#paint0_linear)" stroke-miterlimit="10"/>
<path d="M-78.9302 208.962C-22.63 208.858 37.7544 210.882 93.2557 205.611C180.452 197.328 262.875 178.041 349.423 168.162C381.677 164.481 412.054 162.199 443.379 169.034C468.793 174.613 490.453 184.185 511.163 193.751C547.821 210.663 587.215 233.142 637.984 235.034C670.428 236.246 703.051 226.949 731.072 219.077C762.157 210.344 792.045 200.394 823.121 191.65C851.681 183.62 885.632 173.768 918.785 175.825C948.084 177.641 974.437 187.838 996.785 197.657C1040.4 216.856 1088.12 248.594 1149.93 245.38C1224 241.54 1284.17 212.094 1359.03 208.94" stroke="url(#paint1_linear)" stroke-miterlimit="10"/>
<path d="M-78.9201 202.149C-23.6285 202.045 36.1168 204.075 90.5496 198.704C179.284 189.955 262.666 169.352 350.661 158.859C382.765 155.019 413.372 152.567 444.378 159.89C469.762 165.885 490.772 176.28 510.734 186.505C545.864 204.492 583.77 228.836 635.158 230.937C668.49 232.286 702.063 222.215 730.522 213.888C762.647 204.481 793.433 193.773 825.558 184.355C854.517 175.858 889.467 165.233 923.509 167.399C953.117 169.286 979.02 180.12 1000.76 190.504C1043.03 210.685 1089.28 244.699 1152.08 241.271C1226.16 237.228 1284.03 205.419 1359.04 202.171" stroke="url(#paint2_linear)" stroke-miterlimit="10"/>
<path d="M-78.9002 195.457C-24.3875 195.369 34.9883 197.437 88.6223 192.111C178.105 183.225 261.717 161.541 350.391 150.762C382.056 146.922 413.232 144.421 443.799 151.793C469.392 157.964 490.113 168.919 509.705 179.577C544.276 198.414 581.064 223.734 633.53 225.775C667.601 227.102 701.264 216.927 730.123 208.222C762.926 198.348 794.282 187.092 827.075 177.207C856.404 168.365 891.504 157.57 926.245 159.72C956.202 161.574 981.666 172.605 1003.14 183.433C1045.08 204.579 1089.12 239.455 1153.39 236.06C1227.66 232.138 1283.78 198.37 1359.1 195.468" stroke="url(#paint3_linear)" stroke-miterlimit="10"/>
<path d="M-78.8902 188.875C-24.5772 188.688 34.6089 191.014 88.0132 185.583C176.887 176.527 259.43 154.196 347.406 143.165C378.981 139.21 410.137 136.84 440.683 144.125C466.646 150.329 487.776 161.415 507.658 172.205C542.868 191.316 580.046 216.96 633.2 219.351C667.512 220.893 700.974 210.844 729.963 202.001C762.817 191.974 794.112 180.498 826.956 170.466C856.424 161.459 891.344 150.811 926.345 153.115C956.502 155.101 981.816 166.154 1003.33 177.103C1045.44 198.545 1088.64 232.961 1153.42 229.763C1227.9 226.098 1283.44 191.409 1359.07 188.875" stroke="url(#paint4_linear)" stroke-miterlimit="10"/>
<path d="M-78.8802 182.44C-24.3376 182.1 34.6688 185.035 88.2628 179.226C175.559 169.764 256.245 147.065 342.612 135.644C374.567 131.415 404.904 129.216 435.89 136.549C462.323 142.797 484.202 153.768 504.812 164.465C541.191 183.367 579.936 209.269 633.09 212.533C667.192 214.629 700.774 204.552 729.514 195.715C761.968 185.737 792.794 174.251 825.238 164.262C854.646 155.205 889.567 144.64 924.517 147.378C954.585 149.731 980.268 160.943 1002.08 171.771C1044.41 192.78 1088.86 226.548 1152.86 223.444C1227.52 219.818 1283.24 184.931 1359.05 182.44" stroke="url(#paint5_linear)" stroke-miterlimit="10"/>
<path d="M-78.8601 176.116C-24.0079 175.71 34.8387 179.462 88.7623 173.313C174.281 163.56 252.86 140.565 337.41 128.881C369.634 124.416 399.262 122.425 430.598 129.665C457.44 135.869 480.197 146.555 501.577 157.169C539.174 175.819 579.706 201.628 632.811 205.682C666.603 208.266 699.926 198.397 728.405 189.599C760.31 179.725 790.487 168.31 822.372 158.442C851.691 149.369 886.282 139.106 921.072 142.232C951.17 144.942 977.313 156.204 999.611 166.917C1042.5 187.487 1088.42 220.41 1151.93 217.349C1226.91 213.74 1282.94 178.628 1359.08 176.149" stroke="url(#paint6_linear)" stroke-miterlimit="10"/>
<path d="M-78.8402 169.912C-23.6085 169.522 35.2081 174.267 89.5111 167.805C173.073 157.871 249.365 134.641 331.928 122.754C364.282 118.097 393.35 116.347 424.946 123.379C452.267 129.457 475.874 139.835 498.082 150.258C537.247 168.573 579.197 194.009 632.452 198.809C665.844 201.815 698.578 192.374 726.778 183.636C757.984 173.96 787.392 162.644 818.578 152.956C847.786 143.878 881.708 134.125 916.289 137.597C946.526 140.642 973.208 151.859 996.176 162.424C1039.92 182.539 1087.48 214.453 1150.65 211.409C1226.09 207.772 1282.55 172.424 1359.15 169.928" stroke="url(#paint7_linear)" stroke-miterlimit="10"/>
<path d="M-78.8303 163.828C-23.1493 163.521 35.6474 169.407 90.4397 162.665C171.904 152.644 245.77 129.205 326.205 117.252C358.54 112.436 387.209 110.938 418.964 117.663C446.775 123.555 471.21 133.571 494.327 143.675C535.269 161.574 578.498 186.401 631.952 191.892C696.461 198.523 761.648 164.009 813.924 147.74C843.023 138.678 876.026 129.6 910.307 133.401C940.784 136.785 968.026 147.893 991.782 158.299C1036.64 177.942 1085.97 208.715 1148.98 205.654C1224.98 201.968 1281.98 166.363 1359.13 163.828" stroke="url(#paint8_linear)" stroke-miterlimit="10"/>
<path d="M-78.8102 157.871C-22.6399 157.701 36.1668 164.849 91.5283 157.871C170.806 147.844 242.125 124.295 320.324 112.304C352.548 107.367 380.938 106.138 412.783 112.474C441.103 118.119 466.387 127.691 490.413 137.477C533.132 154.865 577.649 178.864 631.373 185.035C694.903 192.319 757.284 158.804 808.592 142.797C836.962 133.96 870.035 125.052 903.377 129.605C934.334 133.829 961.605 144.07 986.709 154.492C1032.85 173.636 1084.08 203.164 1147.09 200.07C1223.74 196.313 1281.35 160.438 1359.15 157.833" stroke="url(#paint9_linear)" stroke-miterlimit="10"/>
<path d="M-78.7903 152.029C-22.0907 152.029 36.7758 160.548 92.7565 153.313C169.777 143.357 238.48 119.709 314.372 107.784C446.185 87.0548 514.948 163.582 630.734 178.228C693.145 186.132 752.371 153.823 802.75 138.14C830.99 129.364 862.785 121.371 895.708 126.182C927.054 130.762 954.964 140.779 981.077 151.004C1028.66 169.654 1081.87 197.838 1145.01 194.695C1222.38 190.855 1280.66 154.701 1359.18 152.029" stroke="url(#paint10_linear)" stroke-miterlimit="10"/>
<path d="M-78.7703 146.313C-21.5215 146.544 37.4449 156.461 94.0946 149.012C168.819 139.188 234.895 115.486 308.421 103.665C437.508 82.9188 516.126 155.776 630.045 171.469C691.378 179.928 747.049 149.051 796.509 133.67C824.629 124.926 855.036 117.987 887.49 123.017C919.255 127.954 947.874 137.718 975.036 147.729C1024.15 165.83 1079.39 192.66 1142.8 189.445C1220.92 185.49 1279.93 149.073 1359.21 146.313" stroke="url(#paint11_linear)" stroke-miterlimit="10"/>
<path d="M-78.7504 140.718C-20.9323 141.185 38.1539 152.55 95.5126 144.915C167.95 135.271 231.32 111.542 302.569 99.8797C428.92 79.1942 517.265 148.069 629.336 164.81C689.57 173.806 741.457 144.448 790.048 129.369C818.068 120.675 846.967 114.849 878.922 120.044C911.126 125.304 940.485 134.855 968.725 144.619C1019.41 162.172 1076.69 187.602 1140.42 184.316C1219.31 180.241 1279.1 143.549 1359.17 140.696" stroke="url(#paint12_linear)" stroke-miterlimit="10"/>
<path d="M-78.7305 135.244C-20.3532 135.952 38.9028 148.771 97.0204 140.976C167.221 131.552 227.975 107.812 296.927 96.3471C420.592 75.7823 518.383 140.521 628.617 158.266C687.763 167.789 735.755 139.994 783.517 125.206C811.418 116.566 838.909 111.887 870.334 117.268C902.988 122.863 933.115 132.172 962.414 141.695C1014.69 158.7 1073.99 182.726 1138.11 179.357C1217.83 175.167 1278.37 138.217 1359.23 135.244" stroke="url(#paint13_linear)" stroke-miterlimit="10"/>
<path d="M-78.7104 129.896C-19.794 130.839 39.6617 145.079 98.4484 137.153C166.492 127.976 224.679 104.241 291.435 93.001C412.653 72.5953 519.512 133.121 627.958 151.859C686.025 161.897 730.113 135.666 777.096 121.141C804.877 112.556 831.02 109.024 861.846 114.559C894.949 120.494 925.835 129.589 956.182 138.848C1010 155.271 1071.27 177.942 1135.84 174.503C1216.35 170.197 1277.64 132.946 1359.29 129.907" stroke="url(#paint14_linear)" stroke-miterlimit="10"/>
<path d="M-78.6904 124.663C-19.1848 125.831 40.4107 141.437 99.9164 133.401C165.913 124.487 221.644 100.768 286.322 89.7701C405.214 69.5509 520.62 125.875 627.249 145.606C684.348 156.171 724.491 131.393 770.825 117.159C798.516 108.656 823.291 106.188 853.598 111.882C887.13 118.157 918.766 127.071 950.101 136.061C1005.39 151.92 1068.55 173.258 1133.57 169.731C1214.85 165.315 1276.85 127.795 1359.25 124.663" stroke="url(#paint15_linear)" stroke-miterlimit="10"/>
<path d="M-78.6704 119.556C-18.6056 120.916 41.1597 137.806 101.334 129.687C165.444 121.042 218.868 97.3235 281.609 86.5831C342.473 76.1608 407.221 87.927 464.07 100.499C518.892 112.628 571.009 128.535 626.65 139.534C683.03 150.68 718.989 127.071 764.974 113.204C826.037 94.8002 888.578 118.141 944.469 133.275C1001.1 148.59 1066.04 168.655 1131.48 165.052C1213.48 160.543 1276.16 122.759 1359.29 119.55" stroke="url(#paint16_linear)" stroke-miterlimit="10"/>
<path d="M-78.6506 114.564C-18.0265 116.083 41.7487 134.141 102.692 125.963C165.094 117.581 216.391 93.8786 277.445 83.3741C337.749 72.9848 404.205 84.2682 461.324 95.7821C517.255 107.06 570.489 121.953 626.12 133.67C681.751 145.386 714.245 122.935 759.641 109.265C819.316 91.3005 884.464 116.396 939.386 130.466C997.204 145.277 1063.79 164.125 1129.6 160.471C1212.23 155.88 1275.53 117.844 1359.27 114.564" stroke="url(#paint17_linear)" stroke-miterlimit="10"/>
<path d="M-78.6305 109.699C-17.4372 111.344 42.2881 130.411 103.941 122.183C164.854 114.059 214.264 90.368 273.7 80.0664C333.545 69.7265 401.519 80.5492 458.897 91.1085C515.817 101.591 570.12 115.59 625.661 128.025C651.864 133.889 671.067 134.13 696.401 126.566C716.992 120.417 734.407 111.487 754.968 105.294C782.399 97.0218 804.248 97.2522 832.977 103.401C867.498 110.801 901.131 119.309 935.003 127.575C993.789 141.881 1061.82 159.632 1127.93 155.946C1211.13 151.305 1274.96 113.017 1359.3 109.699" stroke="url(#paint18_linear)" stroke-miterlimit="10"/>
<path d="M-78.6106 104.948C-16.8482 106.594 42.6974 126.572 105.069 118.316C164.774 110.412 212.497 86.6324 270.734 76.5942C330.27 66.331 399.492 76.7039 457.1 86.4679C514.708 96.2319 570.02 109.507 625.381 122.671C650.965 128.755 669.669 129.616 694.783 122.09C714.695 116.122 731.311 107.312 751.173 101.3C778.454 93.0394 799.964 93.917 828.194 100.269C862.885 108.075 897.036 116.566 931.547 124.602C991.073 138.458 1060.43 155.222 1126.64 151.525C1210.3 146.857 1274.56 108.338 1359.31 104.998" stroke="url(#paint19_linear)" stroke-miterlimit="10"/>
<path d="M-78.5906 100.329C-16.249 101.931 42.957 122.6 106.028 114.323C164.844 106.594 211.079 82.6336 268.507 72.8915C327.963 62.7929 397.934 72.694 455.902 81.7614C514.339 90.8946 570.13 103.615 625.262 117.504C650.326 123.812 668.82 125.14 693.745 117.614C713.117 111.772 729.064 103.017 748.377 97.1205C775.529 88.8321 797.018 90.176 824.819 96.7694C859.559 104.998 894.11 113.511 929.151 121.377C989.066 134.833 1059.59 150.729 1125.74 147.059C1209.73 142.397 1274.3 103.659 1359.41 100.329" stroke="url(#paint20_linear)" stroke-miterlimit="10"/>
<path d="M-78.5706 95.8259C-15.6598 97.2796 43.037 118.448 106.807 110.148C165.014 102.573 210.25 78.5086 266.99 68.8817C326.256 58.8325 397.145 68.5197 455.263 77.022C514.299 85.6615 570.34 98.0366 625.212 112.677C649.867 119.26 668.46 120.85 693.255 113.275C712.228 107.477 727.676 98.7168 746.62 92.8638C773.671 84.5041 795.46 86.0839 822.931 92.979C857.602 101.679 892.413 110.253 927.843 117.987C987.938 131.103 1059.28 146.286 1125.16 142.671C1209.35 138.058 1274.08 99.1117 1359.39 95.8259" stroke="url(#paint21_linear)" stroke-miterlimit="10"/>
<path d="M-78.5405 91.4376C-15.3102 92.7432 42.9772 114.142 107.136 105.765C165.144 98.1957 210.11 74.1532 266.67 64.5812C325.876 54.5649 397.085 64.4495 455.223 72.7709C514.469 81.2513 570.33 93.5331 625.272 108.239C649.837 114.822 668.69 116.193 693.315 108.667C712.159 102.908 727.507 94.2242 746.35 88.4481C773.312 80.1871 795.5 81.723 822.712 88.8156C857.233 97.8117 892.084 106.451 927.663 114.109C987.468 126.983 1059.74 141.996 1125.11 138.244C1209.18 133.428 1274.33 95.1403 1359.42 91.4541" stroke="url(#paint22_linear)" stroke-miterlimit="10"/>
<path d="M-78.5208 87.1206C-15.1506 88.3603 42.967 109.901 107.276 101.427C165.194 93.7909 210.39 69.9514 266.989 60.4397C326.196 50.4892 397.245 60.8072 455.293 69.1834C514.349 77.7077 569.97 89.9675 625.292 103.977C677.657 117.235 703.611 96.8462 746.739 84.1311C773.701 76.1828 796.03 77.6309 822.991 84.7509C857.363 93.8293 892.153 102.447 927.723 110.017C987.179 122.666 1060.38 137.751 1125.29 133.681C1209 128.426 1274.95 91.6954 1359.47 87.2029" stroke="url(#paint23_linear)" stroke-miterlimit="10"/>
<path d="M-78.5007 82.8695C-14.9408 84.0653 43.037 105.765 107.546 97.2192C165.463 89.5397 210.839 65.9525 267.469 56.5286C326.675 46.6549 397.515 57.3679 455.472 65.7715C514.299 74.3013 569.71 86.5063 625.352 99.8084C677.278 112.227 704.16 92.2001 747.319 80.0609C774.28 72.4582 796.808 73.8624 823.531 80.9935C857.742 90.1211 892.433 98.6729 927.992 106.111C987.209 118.503 1061.14 133.428 1125.51 129.084C1208.8 123.467 1275.56 88.3329 1359.46 83.1273" stroke="url(#paint24_linear)" stroke-miterlimit="10"/>
<path d="M-78.4807 78.6951C-14.7011 79.858 43.1868 101.734 107.935 93.1491C165.783 85.4805 211.428 62.1621 268.098 52.8369C327.304 43.1278 397.914 54.1096 455.762 62.5187C514.309 71.021 569.601 83.1328 625.441 95.6998C676.998 107.29 704.799 87.7076 748.068 76.1334C775.099 68.9091 797.797 70.3134 824.319 77.4389C858.341 86.5831 892.962 95.0361 928.462 102.299C987.528 114.394 1061.91 128.952 1125.84 124.383C1208.72 118.464 1276.25 84.9813 1359.51 79.1339" stroke="url(#paint25_linear)" stroke-miterlimit="10"/>
<path d="M-78.4608 74.592C-14.4116 75.7439 43.3665 97.7897 108.444 89.1996C166.242 81.5749 212.167 58.5198 268.887 49.3812C328.073 39.8421 398.323 51.0707 456.151 59.4523C514.379 67.8998 569.501 79.8854 625.571 91.6955C676.739 102.474 705.518 83.407 748.986 72.4582C776.108 65.6234 798.985 67.077 825.338 74.1806C859.094 83.3712 893.732 91.5491 929.101 98.6784C988.117 110.439 1062.71 124.46 1126.27 119.682C1208.61 113.522 1276.97 81.7285 1359.5 75.3271" stroke="url(#paint26_linear)" stroke-miterlimit="10"/>
<path d="M-78.4307 70.5657C-14.0919 71.7177 43.6662 93.9555 109.063 85.3763C166.812 77.812 213.046 55.064 269.836 46.1119C329.002 36.7867 398.953 48.1908 456.671 56.5341C514.589 64.8938 569.561 76.7149 625.761 87.757C676.549 97.7404 706.367 79.2381 750.095 68.953C777.346 62.5406 800.393 64.0765 826.596 71.1472C860.149 80.2769 894.661 88.3016 929.95 95.1787C988.996 106.572 1063.58 119.83 1126.8 114.926C1208.61 108.58 1277.75 78.525 1359.56 71.6244" stroke="url(#paint27_linear)" stroke-miterlimit="10"/>
<path d="M-78.4108 66.6272C-13.7425 67.7846 44.0056 90.2144 109.772 81.7011C167.481 74.23 214.045 51.8112 270.854 43.073C329.99 33.9782 399.572 45.5194 457.24 53.7914C514.728 62.0195 569.68 73.654 625.941 83.9117C676.369 93.1107 707.285 75.2393 751.313 65.6508C778.714 59.6827 801.941 61.3338 828.034 68.3935C861.357 77.436 895.714 85.2801 930.888 91.8765C990.034 102.847 1064.39 115.222 1127.34 110.203C1208.58 103.73 1278.47 75.4477 1359.54 68.1247" stroke="url(#paint28_linear)" stroke-miterlimit="10"/>
<path d="M-78.3909 62.7655C-13.3631 63.9503 44.435 86.594 110.581 78.1246C168.249 70.7851 215.153 48.7229 272.022 40.2205C331.119 31.3891 400.321 43.0126 457.859 51.1913C514.948 59.3097 569.84 70.6809 626.12 80.1487C676.199 88.5688 708.274 71.3721 752.631 62.5187C780.202 57.0333 803.609 58.8105 829.622 65.8099C862.724 74.7451 896.938 82.3798 932.007 88.6566C991.343 99.205 1065.28 110.532 1128 105.425C1208.65 98.8429 1279.25 72.3979 1359.57 64.6964" stroke="url(#paint29_linear)" stroke-miterlimit="10"/>
<path d="M-78.371 58.9915C-12.9537 60.2093 44.8344 83.0724 111.47 74.7182C169.098 67.4884 216.371 45.7992 273.3 37.5601C332.347 29.0194 401.119 40.6813 458.578 48.7558C515.267 56.7261 570.11 67.8121 626.34 76.479C676.08 84.1585 709.382 67.664 754.089 59.573C781.85 54.5539 805.436 56.5231 831.389 63.4128C864.26 72.2125 898.312 79.6139 933.245 85.5518C992.81 95.6175 1066.15 105.776 1128.69 100.609C1208.74 94.0267 1280.01 69.3973 1359.57 61.3777" stroke="url(#paint30_linear)" stroke-miterlimit="10"/>
<path d="M-78.3508 55.3109C-12.5241 56.5725 45.3238 79.655 112.379 71.416C170.037 64.3563 217.68 43.04 274.679 35.0862C333.665 26.8581 401.958 38.5146 459.417 46.4684C515.687 54.2686 570.489 65.0365 626.66 72.897C676.06 79.8141 710.661 64.0875 755.737 56.7974C783.697 52.2774 807.453 54.4387 833.387 61.2954C866.019 69.9407 899.9 77.0834 934.683 82.65C994.478 92.2001 1067.08 101.108 1129.48 95.8808C1208.9 89.2599 1280.81 66.5504 1359.61 58.2565" stroke="url(#paint31_linear)" stroke-miterlimit="10"/>
<path d="M-78.3309 51.7399C-12.0948 53.0399 45.8231 76.3418 113.467 68.2399C171.036 61.3393 219.077 40.44 276.137 32.7878C335.053 24.8834 402.877 36.5124 460.206 44.3072C516.066 51.9209 570.829 62.3322 626.879 69.3919C675.97 75.5794 711.939 60.6152 757.364 54.1644C785.524 50.1546 809.471 52.5188 835.414 59.3262C867.799 67.7985 901.499 74.6625 936.111 79.836C996.296 88.8321 1067.99 96.3471 1130.3 91.1305C1209.1 84.548 1281.58 63.7474 1359.63 55.2176" stroke="url(#paint32_linear)" stroke-miterlimit="10"/>
<path d="M-78.311 48.2292C-11.5956 49.606 46.4322 73.1329 114.556 65.1846C172.114 58.4759 220.575 37.9935 277.674 30.6595C336.541 23.1061 403.855 34.6693 461.104 42.3324C516.546 49.7542 571.268 59.7705 627.169 66.0293C675.97 71.5147 713.357 57.3569 759.122 51.7673C787.492 48.2841 811.617 50.9006 837.601 57.6147C869.74 65.8971 903.253 72.464 937.679 77.225C998.233 85.6286 1068.93 91.7009 1131.15 86.4788C1209.34 79.9238 1282.34 61.1089 1359.65 52.3817" stroke="url(#paint33_linear)" stroke-miterlimit="10"/>
<path d="M-78.291 44.8338C-11.0963 46.2819 47.0313 70.0336 115.724 62.2608C173.232 55.7497 222.083 35.7006 279.282 28.7012C338.069 21.5044 404.864 32.9853 462.023 40.4784C517.065 47.6916 571.718 57.2856 627.439 62.7436C675.99 67.4994 714.825 54.1973 760.939 49.4415C789.509 46.4958 813.804 49.3702 839.877 56.0239C871.766 64.1003 905.085 70.3501 939.306 74.6743C1000.22 82.4416 1069.84 87.0054 1132.03 81.8053C1209.61 75.327 1283.07 58.4979 1359.67 49.5951" stroke="url(#paint34_linear)" stroke-miterlimit="10"/>
<path d="M-78.2711 41.5425C-10.607 43.0675 47.6704 67.0441 116.892 59.4578C174.411 53.1551 223.671 33.5503 280.94 26.8965C339.646 20.0782 405.913 31.4439 463.032 38.7614C517.684 45.7663 572.257 54.8995 627.798 59.562C676.139 63.6157 716.452 51.1804 762.897 47.3022C791.676 44.8941 816.141 48.0427 842.314 54.5978C873.955 62.4653 907.078 68.3924 941.084 72.2717C1002.41 79.3643 1070.84 82.3703 1133.01 77.2085C1209.9 70.8126 1283.8 56.013 1359.69 46.9621" stroke="url(#paint35_linear)" stroke-miterlimit="10"/>
<path d="M-78.2511 38.3555C-10.0977 39.9627 48.3294 64.1369 118.121 56.781C175.639 50.6977 225.309 31.5372 282.647 25.2454C341.274 18.8275 407.001 30.0506 464.05 37.1817C518.333 43.9671 572.806 52.6121 628.107 56.4847C676.279 59.8583 718.06 48.306 764.804 45.3055C793.763 43.446 818.418 46.8798 844.69 53.3526C876.085 60.9963 909.009 66.5841 942.781 70.0007C1004.49 76.3803 1071.72 77.801 1133.89 72.6776C1210.22 66.3914 1284.41 53.6378 1359.64 44.4553" stroke="url(#paint36_linear)" stroke-miterlimit="10"/>
<path d="M-78.2311 35.2837C-9.5784 36.9732 49.0185 61.3942 119.369 54.2302C176.877 48.3664 226.986 29.6667 284.395 23.7644C342.922 17.7305 408.099 28.8274 465.139 35.7609C519.062 42.3434 573.415 50.4563 628.487 53.5446C676.569 56.2434 719.778 45.5908 766.881 43.4734C796.05 42.1624 820.804 45.8979 847.327 52.2829C878.48 59.6989 911.202 64.94 944.729 67.8834C1085.53 80.6589 1223.5 59.1068 1359.78 42.102" stroke="url(#paint37_linear)" stroke-miterlimit="10"/>
<path d="M-78.2112 32.3106C-9.04922 34.0934 49.7175 58.7283 120.647 51.7892C178.155 46.1612 228.694 27.9278 286.172 22.3711C344.599 16.7211 409.228 27.6809 466.147 34.4115C519.761 40.7691 573.954 48.3554 628.777 50.6428C676.848 52.6669 721.415 42.9632 768.868 41.7016C798.206 40.9337 823.171 44.9928 849.843 51.2846C880.64 58.5966 913.343 63.2592 946.546 65.8373C1083.76 76.4954 1226.88 56.7096 1359.75 39.8201" stroke="url(#paint38_linear)" stroke-miterlimit="10"/>
<path d="M-78.1912 29.4582C-8.51993 31.3342 50.4265 56.183 121.935 49.4744C179.454 44.0603 230.411 26.3151 287.96 21.1314C346.287 15.8819 410.356 26.6936 467.216 33.1993C520.54 39.3155 574.544 46.3642 629.116 47.9056C677.278 49.266 723.103 40.4784 770.915 40.1108C800.423 39.8859 825.548 44.2633 852.43 50.4782C883.026 57.5489 915.51 61.8111 948.433 63.9284C1011.15 67.9602 1074.75 64.5263 1136.96 59.595C1211.59 53.6762 1286.33 47.1815 1359.77 37.6534" stroke="url(#paint39_linear)" stroke-miterlimit="10"/>
<path d="M-78.1711 26.721C-8.58978 28.6573 50.2768 53.55 121.716 47.4174C179.004 42.4805 230.062 25.4264 287.161 20.2537C344.879 15.0261 407.66 25.399 464.02 31.6633C518.503 37.6973 573.695 44.4388 629.466 45.2836C678.976 46.0351 727.217 37.7302 776.617 38.7011C806.435 39.288 831.29 44.6418 858.621 50.5879C887.011 56.7645 916.988 60.3026 947.305 61.9756C1011.83 65.5356 1075.83 60.2861 1139.59 55.3328C1213.19 49.617 1287.44 45.2177 1359.82 35.6622" stroke="url(#paint40_linear)" stroke-miterlimit="10"/>
<path d="M-78.1612 24.1045C-8.10051 26.1341 51.0057 51.2352 122.974 45.3384C180.272 40.6429 231.74 24.0386 288.928 19.2444C346.527 14.4392 408.808 24.664 465.089 30.7253C519.312 36.5728 574.294 42.7932 629.775 42.7932C679.575 42.7932 728.885 35.5909 778.694 37.4285C808.552 38.5256 833.616 44.1865 861.157 50.0065C889.357 55.9636 919.135 59.1287 949.192 60.3794C1013.93 63.0727 1076.82 56.1446 1140.57 51.3285C1213.69 45.8047 1287.93 43.4514 1359.8 33.7752" stroke="url(#paint41_linear)" stroke-miterlimit="10"/>
<path d="M-78.1412 21.6141C-7.55131 23.7369 51.6747 49.0411 124.252 43.3746C181.571 38.8986 233.437 22.7605 290.706 18.3393C348.184 13.8907 409.977 24.0441 466.227 29.908C520.151 35.5415 574.923 41.2024 630.115 40.4016C680.274 39.672 730.552 33.5503 780.781 36.2436C810.679 37.8509 835.943 43.8135 863.664 49.5073C891.624 55.2505 921.262 58.0426 951.04 58.8709C1015.95 60.6865 1077.8 52.1129 1141.53 47.4283C1214.19 42.0856 1288.32 41.7894 1359.77 31.9925" stroke="url(#paint42_linear)" stroke-miterlimit="10"/>
<path d="M-78.1212 19.2499C-7.04198 21.4441 52.4337 46.9621 125.52 41.5316C182.849 37.2694 235.115 21.5702 292.473 17.5439C349.832 13.5177 411.125 23.534 467.226 29.1949C521.019 34.6254 575.532 39.7543 630.424 38.1471C681.023 36.666 732.16 31.6414 782.808 35.1795C812.766 37.2694 838.21 43.5557 866.19 49.1179C894.17 54.68 923.429 57.0717 952.927 57.4886C1017.84 58.4156 1078.87 48.2347 1142.53 43.6818C1214.77 38.5146 1288.84 40.2699 1359.81 30.3304" stroke="url(#paint43_linear)" stroke-miterlimit="10"/>
<path d="M-78.1113 17.0119C-6.54279 19.3157 53.1426 44.9874 126.748 39.8091C184.107 35.7554 236.752 20.5335 294.191 16.8473C351.39 13.1776 412.303 23.1281 468.304 28.597C521.938 33.8301 576.151 38.4213 630.774 36.0242C681.871 33.7807 733.768 29.8477 784.865 34.214C814.733 36.7702 840.476 43.3856 868.657 48.8216C896.317 54.1534 925.576 56.205 954.754 56.2214C1019.66 56.2653 1079.92 44.5266 1143.49 40.0944C1215.38 35.0807 1289.28 38.8821 1359.81 28.7835" stroke="url(#paint44_linear)" stroke-miterlimit="10"/>
<path d="M-78.1013 14.9109C-6.05339 17.2916 53.8118 43.1772 127.947 38.1964C185.335 34.3567 238.36 19.5461 295.869 16.2549C353.008 12.9636 413.312 22.8373 469.323 28.1143C522.847 33.1389 576.79 37.2145 631.093 34.0385C682.74 31.0215 735.306 28.1801 786.872 33.3583C816.73 36.3479 842.693 43.2978 871.083 48.6077C898.614 53.753 927.623 55.437 956.532 55.064C1021.34 54.2357 1080.97 40.994 1144.45 36.666C1215.93 31.795 1289.64 37.6424 1359.84 27.3408" stroke="url(#paint45_linear)" stroke-miterlimit="10"/>
<path d="M-78.0813 12.9417C-5.58407 15.4046 54.4908 41.4657 129.115 36.7044C186.534 33.0347 239.958 18.7014 297.496 15.7228C354.515 12.7716 414.331 22.6289 470.311 27.7084C523.736 32.541 577.409 36.1065 631.403 32.168C683.629 28.3611 736.843 26.5948 788.77 32.5684C818.598 35.9968 844.78 43.2759 873.42 48.4761C900.781 53.4129 929.64 54.7733 958.299 54.0218C1022.94 52.3378 1082.05 37.6589 1145.42 33.4241C1216.57 28.6683 1290.06 36.5453 1359.92 26.0408" stroke="url(#paint46_linear)" stroke-miterlimit="10"/>
<path d="M-78.0713 11.1096C-5.17463 13.6493 55.1199 39.8969 130.223 35.3276C187.672 31.8279 241.396 17.9279 299.064 15.2785C355.983 12.6674 415.359 22.5082 471.25 27.4122C524.604 32.1022 578.009 35.1301 631.683 30.4456C684.518 25.8378 738.211 25.1247 790.587 31.8718C820.355 35.7115 846.788 43.3198 875.617 48.3993C902.838 53.1935 931.537 54.1863 959.897 53.0783C1024.31 50.5605 1083.01 34.5267 1146.26 30.3468C1217.16 25.6788 1290.35 35.5744 1359.9 24.8176" stroke="url(#paint47_linear)" stroke-miterlimit="10"/>
<path d="M-78.0614 9.42555C-4.70539 12.0256 55.7489 38.4488 131.272 34.0604C188.77 30.7253 242.824 17.2367 300.552 14.9109C357.381 12.6235 416.298 22.4643 472.139 27.2147C525.443 31.7511 578.588 34.2744 631.962 28.8603C685.336 23.4462 739.56 23.7644 792.345 31.2574C822.043 35.4757 848.735 43.3253 877.724 48.3828C904.685 53.0947 933.425 53.6872 961.435 52.2226C1025.58 48.9313 1083.96 31.603 1147.08 27.478C1217.67 22.8648 1290.65 34.7626 1359.9 23.715" stroke="url(#paint48_linear)" stroke-miterlimit="10"/>
<path d="M-78.0013 7.85674C-4.2459 10.5117 56.3382 37.1103 132.311 32.8921C189.789 29.716 244.162 16.6334 301.96 14.6093C358.66 12.6235 417.197 22.4972 472.978 27.1105C526.252 31.4988 579.147 33.5448 632.212 27.4176C686.275 21.1807 740.818 22.4808 793.982 30.7089C823.62 35.2837 850.542 43.4295 879.701 48.4157C906.553 53.007 935.142 53.2703 962.863 51.5095C993.11 49.5841 1022.6 45.1739 1051.64 40.2809C1082.97 35.0094 1115.22 26.9678 1147.86 24.8395C1218.21 20.2482 1290.94 34.1208 1359.91 22.7441" stroke="url(#paint49_linear)" stroke-miterlimit="10"/>
<path d="M-78.0013 6.4854C-3.88641 9.18421 56.8076 35.9529 133.219 31.8773C190.748 28.8055 245.41 16.0848 303.278 14.3624C359.888 12.6565 418.006 22.5905 473.737 27.0885C527.011 31.3781 579.696 32.9414 632.452 26.1231C687.104 19.0579 742.006 21.3014 795.56 30.2426C825.068 35.1795 852.22 43.5721 881.528 48.487C908.271 52.9686 936.73 52.9357 964.181 50.8732C994.368 48.6132 1023.69 43.819 1052.56 38.6133C1083.66 33.0073 1115.96 24.5488 1148.59 22.404C1218.72 17.8018 1291.22 33.6216 1359.92 21.8555" stroke="url(#paint50_linear)" stroke-miterlimit="10"/>
<path d="M-78.0013 5.2402C-3.5469 7.9829 57.3068 34.9107 134.048 30.9557C191.616 27.9826 246.539 15.646 304.456 14.1704C360.986 12.7278 418.714 22.777 474.406 27.1598C527.69 31.3452 580.186 32.4697 632.631 24.9657C687.913 17.0832 743.065 20.2098 796.998 29.8367C826.397 35.0807 853.748 43.7312 883.206 48.5912C909.838 52.9796 938.128 52.6724 965.379 50.3411C995.497 47.763 1024.67 42.6067 1053.38 37.1158C1084.28 31.208 1116.62 22.3766 1149.25 20.1989C1219.15 15.5363 1291.48 33.2815 1359.95 21.093" stroke="url(#paint51_linear)" stroke-miterlimit="10"/>
<path d="M-78.0013 4.14861C-3.23733 6.8913 57.7162 34.0056 134.787 30.1439C192.425 27.2531 247.627 15.2565 305.605 14.0223C362.075 12.8155 419.443 23.0129 475.075 27.3079C528.379 31.4165 580.725 32.1241 632.851 23.9783C688.702 15.251 743.993 19.2005 798.306 29.4637C827.605 35.0094 855.136 43.8848 884.714 48.701C911.256 53.018 939.446 52.4694 966.438 49.8913C996.515 47.0169 1025.52 41.5315 1054.11 35.7774C1084.84 29.5844 1117.19 20.4512 1149.87 18.2241C1219.63 13.4628 1291.78 33.0895 1359.95 20.4183" stroke="url(#paint52_linear)" stroke-miterlimit="10"/>
<path d="M-78.0013 3.21609C-2.94774 5.95879 58.0658 33.2431 135.436 29.4417C193.084 26.6113 248.536 14.9329 306.563 13.8907C362.974 12.8978 419.963 23.2762 475.594 27.5109C528.928 31.5701 581.174 31.8992 633.001 23.1226C689.431 13.5615 744.752 18.257 799.465 29.1565C828.633 34.971 856.324 44.0493 886.012 48.8326C912.475 53.1002 940.525 52.3433 967.327 49.5457C997.364 46.4026 1026.24 40.621 1054.71 34.6254C1085.3 28.1801 1117.62 18.8111 1150.39 16.5237C1220 11.6142 1292.06 33.0895 1359.96 19.8588" stroke="url(#paint53_linear)" stroke-miterlimit="10"/>
<path d="M-78.0013 2.43718C-3.31722 5.17988 57.4966 32.4642 134.418 28.9261C195.201 26.1341 253.958 13.5232 315.291 13.781C367.727 14.0004 420.342 23.4627 472.139 27.5328C527.171 31.8553 579.846 31.7347 633.141 22.4808C692.237 12.2451 747.608 17.6262 804.567 29.7983C830.101 35.2508 854.427 42.689 880.15 47.7959C907.372 53.199 937.259 52.6724 965.27 49.6719C997.055 46.2709 1027.48 39.7982 1057.46 33.2157C1087.68 26.5564 1119.8 17.1819 1152.38 14.9878C1221.29 10.3745 1292.95 33.1499 1359.95 19.4145" stroke="url(#paint54_linear)" stroke-miterlimit="10"/>
<path d="M-78.0013 1.8228C-3.10751 4.5271 57.7063 31.9925 134.837 28.4489C195.641 25.6513 254.667 13.3366 315.98 13.748C368.376 14.1046 420.722 23.8302 472.488 27.9058C527.56 32.2393 580.226 31.8114 633.26 21.9542C692.956 10.8518 748.038 16.8637 805.466 29.6337C830.88 35.2837 855.276 42.7877 881.069 47.9001C908.231 53.3087 937.988 52.6724 965.839 49.5018C997.604 45.8869 1027.91 39.1344 1057.8 32.3764C1087.98 25.5526 1120.09 16.0738 1152.75 13.77C1221.53 8.95381 1293.26 33.4351 1359.96 19.036" stroke="url(#paint55_linear)" stroke-miterlimit="10"/>
<path d="M-78.0013 1.38397C-2.95772 4.04439 57.8061 31.6743 135.156 28.0759C195.97 25.2454 255.126 13.194 316.519 13.7371C368.895 14.1978 420.991 24.2361 472.738 28.3447C527.84 32.733 580.585 32.0363 633.28 21.5867C693.555 9.63948 748.197 16.1561 806.115 29.4637C831.469 35.2837 855.925 42.8645 881.738 48.0372C908.88 53.4732 938.378 52.7876 966.208 49.4689C1030.51 41.7894 1088.12 17.7469 1153.03 12.8978C1221.69 7.76897 1293.61 33.9014 1359.96 18.7781" stroke="url(#paint56_linear)" stroke-miterlimit="10"/>
<path d="M-78.0013 1.10495C-2.8379 3.71051 57.906 31.505 135.346 27.8188C196.17 24.917 255.526 13.1015 316.889 13.7323C369.275 14.2809 421.141 24.6702 472.868 28.8501C527.99 33.3042 580.915 32.4046 633.31 21.3899C694.114 8.60348 748.147 15.4986 806.615 29.3437C831.759 35.2844 856.274 43.156 882.148 48.1257C909.629 53.3972 938.238 52.9693 966.368 49.5026C1030.78 41.5597 1088.07 17.4953 1153.21 12.2951C1221.78 6.80976 1294.01 34.5384 1359.92 18.6143" stroke="url(#paint57_linear)" stroke-miterlimit="10"/>
<path d="M-78.0013 1C-2.75802 3.52877 57.876 31.4878 135.396 27.6645C196.22 24.664 255.656 13.0459 317.138 13.7261C369.534 14.3076 421.201 25.1357 472.918 29.4143C528.039 33.9727 581.244 32.925 633.33 21.3563C694.603 7.73606 747.878 14.878 806.904 29.2498C860.828 42.3708 905.255 57.3075 966.318 49.617C1030.9 41.4822 1087.92 17.6207 1153.29 12.0037C1221.78 6.11787 1294.39 35.344 1360 18.5862" stroke="url(#paint58_linear)" stroke-miterlimit="10"/>
<defs>
<linearGradient id="paint0_linear" x1="1.03661e+06" y1="7672.27" x2="1.03661e+06" y2="2199.33" gradientUnits="userSpaceOnUse">
<stop stop-color="#592CB8"/>
<stop offset="1" stop-color="#2C66B8"/>
</linearGradient>
<linearGradient id="paint1_linear" x1="1.03661e+06" y1="8396.76" x2="1.03661e+06" y2="2387.24" gradientUnits="userSpaceOnUse">
<stop stop-color="#592CB8"/>
<stop offset="1" stop-color="#2C66B8"/>
</linearGradient>
<linearGradient id="paint2_linear" x1="1.03661e+06" y1="8933.38" x2="1.03661e+06" y2="2525.21" gradientUnits="userSpaceOnUse">
<stop stop-color="#592CB8"/>
<stop offset="1" stop-color="#2C66B8"/>
</linearGradient>
<linearGradient id="paint3_linear" x1="1.03663e+06" y1="9219.6" x2="1.03663e+06" y2="2596.56" gradientUnits="userSpaceOnUse">
<stop stop-color="#592CB8"/>
<stop offset="1" stop-color="#2C66B8"/>
</linearGradient>
<linearGradient id="paint4_linear" x1="1.03661e+06" y1="9346.35" x2="1.03661e+06" y2="2625.2" gradientUnits="userSpaceOnUse">
<stop stop-color="#592CB8"/>
<stop offset="1" stop-color="#2C66B8"/>
</linearGradient>
<linearGradient id="paint5_linear" x1="1.03658e+06" y1="9474.83" x2="1.03658e+06" y2="2654.3" gradientUnits="userSpaceOnUse">
<stop stop-color="#592CB8"/>
<stop offset="1" stop-color="#2C66B8"/>
</linearGradient>
<linearGradient id="paint6_linear" x1="1.03659e+06" y1="9547.3" x2="1.03659e+06" y2="2668.84" gradientUnits="userSpaceOnUse">
<stop stop-color="#592CB8"/>
<stop offset="1" stop-color="#2C66B8"/>
</linearGradient>
<linearGradient id="paint7_linear" x1="1.03663e+06" y1="9567.75" x2="1.03663e+06" y2="2669.84" gradientUnits="userSpaceOnUse">
<stop stop-color="#592CB8"/>
<stop offset="1" stop-color="#2C66B8"/>
</linearGradient>
<linearGradient id="paint8_linear" x1="1.03661e+06" y1="9542.65" x2="1.03661e+06" y2="2659.01" gradientUnits="userSpaceOnUse">
<stop stop-color="#592CB8"/>
<stop offset="1" stop-color="#2C66B8"/>
</linearGradient>
<linearGradient id="paint9_linear" x1="1.03661e+06" y1="9476.28" x2="1.03661e+06" y2="2637.47" gradientUnits="userSpaceOnUse">
<stop stop-color="#592CB8"/>
<stop offset="1" stop-color="#2C66B8"/>
</linearGradient>
<linearGradient id="paint10_linear" x1="1.03661e+06" y1="9324.65" x2="1.03661e+06" y2="2593.67" gradientUnits="userSpaceOnUse">
<stop stop-color="#592CB8"/>
<stop offset="1" stop-color="#2C66B8"/>
</linearGradient>
<linearGradient id="paint11_linear" x1="1.03662e+06" y1="9223.04" x2="1.03662e+06" y2="2563.12" gradientUnits="userSpaceOnUse">
<stop stop-color="#592CB8"/>
<stop offset="1" stop-color="#2C66B8"/>
</linearGradient>
<linearGradient id="paint12_linear" x1="1.03658e+06" y1="9100.37" x2="1.03658e+06" y2="2527.13" gradientUnits="userSpaceOnUse">
<stop stop-color="#592CB8"/>
<stop offset="1" stop-color="#2C66B8"/>
</linearGradient>
<linearGradient id="paint13_linear" x1="1.03661e+06" y1="8970.16" x2="1.03661e+06" y2="2489.28" gradientUnits="userSpaceOnUse">
<stop stop-color="#592CB8"/>
<stop offset="1" stop-color="#2C66B8"/>
</linearGradient>
<linearGradient id="paint14_linear" x1="1.03663e+06" y1="8832.49" x2="1.03663e+06" y2="2449.56" gradientUnits="userSpaceOnUse">
<stop stop-color="#592CB8"/>
<stop offset="1" stop-color="#2C66B8"/>
</linearGradient>
<linearGradient id="paint15_linear" x1="1.03659e+06" y1="8693.01" x2="1.03659e+06" y2="2409.42" gradientUnits="userSpaceOnUse">
<stop stop-color="#592CB8"/>
<stop offset="1" stop-color="#2C66B8"/>
</linearGradient>
<linearGradient id="paint16_linear" x1="1.03661e+06" y1="8511.4" x2="1.03661e+06" y2="2358.28" gradientUnits="userSpaceOnUse">
<stop stop-color="#592CB8"/>
<stop offset="1" stop-color="#2C66B8"/>
</linearGradient>
<linearGradient id="paint17_linear" x1="1.03658e+06" y1="8381.43" x2="1.03658e+06" y2="2320.78" gradientUnits="userSpaceOnUse">
<stop stop-color="#592CB8"/>
<stop offset="1" stop-color="#2C66B8"/>
</linearGradient>
<linearGradient id="paint18_linear" x1="1.03658e+06" y1="8265.59" x2="1.03658e+06" y2="2287.03" gradientUnits="userSpaceOnUse">
<stop stop-color="#592CB8"/>
<stop offset="1" stop-color="#2C66B8"/>
</linearGradient>
<linearGradient id="paint19_linear" x1="1.03658e+06" y1="8174.56" x2="1.03658e+06" y2="2259.88" gradientUnits="userSpaceOnUse">
<stop stop-color="#592CB8"/>
<stop offset="1" stop-color="#2C66B8"/>
</linearGradient>
<linearGradient id="paint20_linear" x1="1.03663e+06" y1="8096.02" x2="1.03663e+06" y2="2235.96" gradientUnits="userSpaceOnUse">
<stop stop-color="#592CB8"/>
<stop offset="1" stop-color="#2C66B8"/>
</linearGradient>
<linearGradient id="paint21_linear" x1="1.03661e+06" y1="8057.07" x2="1.03661e+06" y2="2222.5" gradientUnits="userSpaceOnUse">
<stop stop-color="#592CB8"/>
<stop offset="1" stop-color="#2C66B8"/>
</linearGradient>
<linearGradient id="paint22_linear" x1="1.03661e+06" y1="8038.38" x2="1.03661e+06" y2="2214.35" gradientUnits="userSpaceOnUse">
<stop stop-color="#592CB8"/>
<stop offset="1" stop-color="#2C66B8"/>
</linearGradient>
<linearGradient id="paint23_linear" x1="1.03663e+06" y1="7986.94" x2="1.03663e+06" y2="2197.54" gradientUnits="userSpaceOnUse">
<stop stop-color="#592CB8"/>
<stop offset="1" stop-color="#2C66B8"/>
</linearGradient>
<linearGradient id="paint24_linear" x1="1.03661e+06" y1="7909.64" x2="1.03661e+06" y2="2173.91" gradientUnits="userSpaceOnUse">
<stop stop-color="#592CB8"/>
<stop offset="1" stop-color="#2C66B8"/>
</linearGradient>
<linearGradient id="paint25_linear" x1="1.03663e+06" y1="7796.87" x2="1.03663e+06" y2="2140.88" gradientUnits="userSpaceOnUse">
<stop stop-color="#592CB8"/>
<stop offset="1" stop-color="#2C66B8"/>
</linearGradient>
<linearGradient id="paint26_linear" x1="1.03661e+06" y1="7661.81" x2="1.03661e+06" y2="2102.01" gradientUnits="userSpaceOnUse">
<stop stop-color="#592CB8"/>
<stop offset="1" stop-color="#2C66B8"/>
</linearGradient>
<linearGradient id="paint27_linear" x1="1.03663e+06" y1="7500.34" x2="1.03663e+06" y2="2056.14" gradientUnits="userSpaceOnUse">
<stop stop-color="#592CB8"/>
<stop offset="1" stop-color="#2C66B8"/>
</linearGradient>
<linearGradient id="paint28_linear" x1="1.0366e+06" y1="7320.32" x2="1.0366e+06" y2="2005.43" gradientUnits="userSpaceOnUse">
<stop stop-color="#592CB8"/>
<stop offset="1" stop-color="#2C66B8"/>
</linearGradient>
<linearGradient id="paint29_linear" x1="1.03661e+06" y1="7116.47" x2="1.03661e+06" y2="1948.44" gradientUnits="userSpaceOnUse">
<stop stop-color="#592CB8"/>
<stop offset="1" stop-color="#2C66B8"/>
</linearGradient>
<linearGradient id="paint30_linear" x1="1.03659e+06" y1="6890.23" x2="1.03659e+06" y2="1885.54" gradientUnits="userSpaceOnUse">
<stop stop-color="#592CB8"/>
<stop offset="1" stop-color="#2C66B8"/>
</linearGradient>
<linearGradient id="paint31_linear" x1="1.03661e+06" y1="6656.88" x2="1.03661e+06" y2="1820.86" gradientUnits="userSpaceOnUse">
<stop stop-color="#592CB8"/>
<stop offset="1" stop-color="#2C66B8"/>
</linearGradient>
<linearGradient id="paint32_linear" x1="1.03661e+06" y1="6404.69" x2="1.03661e+06" y2="1751.22" gradientUnits="userSpaceOnUse">
<stop stop-color="#592CB8"/>
<stop offset="1" stop-color="#2C66B8"/>
</linearGradient>
<linearGradient id="paint33_linear" x1="1.03661e+06" y1="6150.55" x2="1.03661e+06" y2="1681.18" gradientUnits="userSpaceOnUse">
<stop stop-color="#592CB8"/>
<stop offset="1" stop-color="#2C66B8"/>
</linearGradient>
<linearGradient id="paint34_linear" x1="1.03661e+06" y1="5883.13" x2="1.03661e+06" y2="1607.68" gradientUnits="userSpaceOnUse">
<stop stop-color="#592CB8"/>
<stop offset="1" stop-color="#2C66B8"/>
</linearGradient>
<linearGradient id="paint35_linear" x1="1.03661e+06" y1="5616.92" x2="1.03661e+06" y2="1534.62" gradientUnits="userSpaceOnUse">
<stop stop-color="#592CB8"/>
<stop offset="1" stop-color="#2C66B8"/>
</linearGradient>
<linearGradient id="paint36_linear" x1="1.03656e+06" y1="5356.31" x2="1.03656e+06" y2="1463.19" gradientUnits="userSpaceOnUse">
<stop stop-color="#592CB8"/>
<stop offset="1" stop-color="#2C66B8"/>
</linearGradient>
<linearGradient id="paint37_linear" x1="1.03664e+06" y1="5077.19" x2="1.03664e+06" y2="1386.88" gradientUnits="userSpaceOnUse">
<stop stop-color="#592CB8"/>
<stop offset="1" stop-color="#2C66B8"/>
</linearGradient>
<linearGradient id="paint38_linear" x1="1.03661e+06" y1="4905.1" x2="1.03661e+06" y2="1339.52" gradientUnits="userSpaceOnUse">
<stop stop-color="#592CB8"/>
<stop offset="1" stop-color="#2C66B8"/>
</linearGradient>
<linearGradient id="paint39_linear" x1="1.03661e+06" y1="4693.04" x2="1.03661e+06" y2="1281.49" gradientUnits="userSpaceOnUse">
<stop stop-color="#592CB8"/>
<stop offset="1" stop-color="#2C66B8"/>
</linearGradient>
<linearGradient id="paint40_linear" x1="1.03663e+06" y1="4524.48" x2="1.03663e+06" y2="1235.31" gradientUnits="userSpaceOnUse">
<stop stop-color="#592CB8"/>
<stop offset="1" stop-color="#2C66B8"/>
</linearGradient>
<linearGradient id="paint41_linear" x1="1.03661e+06" y1="4388.12" x2="1.03661e+06" y2="1197.89" gradientUnits="userSpaceOnUse">
<stop stop-color="#592CB8"/>
<stop offset="1" stop-color="#2C66B8"/>
</linearGradient>
<linearGradient id="paint42_linear" x1="1.03657e+06" y1="4274.75" x2="1.03657e+06" y2="1166.73" gradientUnits="userSpaceOnUse">
<stop stop-color="#592CB8"/>
<stop offset="1" stop-color="#2C66B8"/>
</linearGradient>
<linearGradient id="paint43_linear" x1="1.03658e+06" y1="4178.32" x2="1.03658e+06" y2="1140.24" gradientUnits="userSpaceOnUse">
<stop stop-color="#592CB8"/>
<stop offset="1" stop-color="#2C66B8"/>
</linearGradient>
<linearGradient id="paint44_linear" x1="1.03658e+06" y1="4099.87" x2="1.03658e+06" y2="1118.65" gradientUnits="userSpaceOnUse">
<stop stop-color="#592CB8"/>
<stop offset="1" stop-color="#2C66B8"/>
</linearGradient>
<linearGradient id="paint45_linear" x1="1.03659e+06" y1="4102.33" x2="1.03659e+06" y2="1118.48" gradientUnits="userSpaceOnUse">
<stop stop-color="#592CB8"/>
<stop offset="1" stop-color="#2C66B8"/>
</linearGradient>
<linearGradient id="paint46_linear" x1="1.03663e+06" y1="4209.18" x2="1.03663e+06" y2="1145.89" gradientUnits="userSpaceOnUse">
<stop stop-color="#592CB8"/>
<stop offset="1" stop-color="#2C66B8"/>
</linearGradient>
<linearGradient id="paint47_linear" x1="1.03661e+06" y1="4319.88" x2="1.03661e+06" y2="1174.44" gradientUnits="userSpaceOnUse">
<stop stop-color="#592CB8"/>
<stop offset="1" stop-color="#2C66B8"/>
</linearGradient>
<linearGradient id="paint48_linear" x1="1.03661e+06" y1="4432.54" x2="1.03661e+06" y2="1203.63" gradientUnits="userSpaceOnUse">
<stop stop-color="#592CB8"/>
<stop offset="1" stop-color="#2C66B8"/>
</linearGradient>
<linearGradient id="paint49_linear" x1="1.03657e+06" y1="4548.43" x2="1.03657e+06" y2="1233.77" gradientUnits="userSpaceOnUse">
<stop stop-color="#592CB8"/>
<stop offset="1" stop-color="#2C66B8"/>
</linearGradient>
<linearGradient id="paint50_linear" x1="1.03658e+06" y1="4655.85" x2="1.03658e+06" y2="1261.77" gradientUnits="userSpaceOnUse">
<stop stop-color="#592CB8"/>
<stop offset="1" stop-color="#2C66B8"/>
</linearGradient>
<linearGradient id="paint51_linear" x1="1.0366e+06" y1="4760.88" x2="1.0366e+06" y2="1289.22" gradientUnits="userSpaceOnUse">
<stop stop-color="#592CB8"/>
<stop offset="1" stop-color="#2C66B8"/>
</linearGradient>
<linearGradient id="paint52_linear" x1="1.0366e+06" y1="4857.75" x2="1.0366e+06" y2="1314.58" gradientUnits="userSpaceOnUse">
<stop stop-color="#592CB8"/>
<stop offset="1" stop-color="#2C66B8"/>
</linearGradient>
<linearGradient id="paint53_linear" x1="1.03661e+06" y1="4946.67" x2="1.03661e+06" y2="1337.9" gradientUnits="userSpaceOnUse">
<stop stop-color="#592CB8"/>
<stop offset="1" stop-color="#2C66B8"/>
</linearGradient>
<linearGradient id="paint54_linear" x1="1.0366e+06" y1="5031.91" x2="1.0366e+06" y2="1360.35" gradientUnits="userSpaceOnUse">
<stop stop-color="#592CB8"/>
<stop offset="1" stop-color="#2C66B8"/>
</linearGradient>
<linearGradient id="paint55_linear" x1="1.03661e+06" y1="5096.06" x2="1.03661e+06" y2="1377.22" gradientUnits="userSpaceOnUse">
<stop stop-color="#592CB8"/>
<stop offset="1" stop-color="#2C66B8"/>
</linearGradient>
<linearGradient id="paint56_linear" x1="1.03661e+06" y1="5151.79" x2="1.03661e+06" y2="1391.95" gradientUnits="userSpaceOnUse">
<stop stop-color="#592CB8"/>
<stop offset="1" stop-color="#2C66B8"/>
</linearGradient>
<linearGradient id="paint57_linear" x1="1.03658e+06" y1="5185.84" x2="1.03658e+06" y2="1400.94" gradientUnits="userSpaceOnUse">
<stop stop-color="#592CB8"/>
<stop offset="1" stop-color="#2C66B8"/>
</linearGradient>
<linearGradient id="paint58_linear" x1="1.03663e+06" y1="5157.47" x2="1.03663e+06" y2="1393.2" gradientUnits="userSpaceOnUse">
<stop stop-color="#592CB8"/>
<stop offset="1" stop-color="#2C66B8"/>
</linearGradient>
</defs>
</svg>
